<svg><path fill="#F76B6D" d="M29.673 1.013h2.154c1.346.034 2.255 1.124 1.952 2.486l-.438 1.975c-.336 1.363.472 2.963 1.717 3.542l1.885.92c1.245.613 1.582 2.01.707 3.066l-1.313 1.634c-.842 1.09-.842 2.861 0 3.95l1.313 1.602c.875 1.09.538 2.452-.707 3.065l-1.885.92c-1.245.612-2.053 2.213-1.717 3.541l.438 2.044c.303 1.328-.606 2.452-1.952 2.452l-2.154.034c-1.38 0-2.76 1.056-3.097 2.418l-.471 2.01c-.303 1.328-1.616 1.975-2.861 1.362l-1.885-.886c-1.28-.579-3.03-.204-3.87.886l-1.347 1.6c-.875 1.09-2.289 1.09-3.164 0l-1.346-1.6c-.842-1.09-2.592-1.465-3.837-.886l-1.885.886c-1.28.613-2.558-.034-2.895-1.362l-.471-2.01c-.292-1.18-1.366-2.13-2.546-2.363V.955C.633.822 1.237.473 1.705-.002h25.71c.602.61 1.43 1.015 2.258 1.015z" opacity=".746" transform="translate(-15 -638) translate(15 638)"></path></svg>